<svg width="37" height="37" viewBox="0 0 37 37" fill="none" xmlns="http://www.w3.org/2000/svg">
<path d="M4.625 6.16659V24.6666C4.625 26.367 6.00787 27.7499 7.70833 27.7499H13.2368L18.5 33.0132L23.7632 27.7499H29.2917C30.9921 27.7499 32.375 26.367 32.375 24.6666V6.16659C32.375 4.46613 30.9921 3.08325 29.2917 3.08325H7.70833C6.00787 3.08325 4.625 4.46613 4.625 6.16659ZM7.70833 6.16659H29.2917V24.6666H22.4867L18.5 28.6533L14.5132 24.6666H7.70833V6.16659Z" fill="#C08FFF"/>
<path d="M26.5282 11.1108L24.3483 8.93091L16.9591 16.3201L13.4241 12.7851L11.2441 14.965L16.9591 20.6799L26.5282 11.1108Z" fill="#C08FFF"/>
</svg>
