<svg width="40" height="40" viewBox="0 0 40 40" xmlns="http://www.w3.org/2000/svg">
<path d="M19.959 36.6666H20.0007C26.4323 36.6666 31.6673 31.4333 31.6673 24.9999V14.9999C31.6673 8.59825 26.4557 3.37659 20.0323 3.33325H19.9323C13.5323 3.36992 8.33398 8.59492 8.33398 14.9999V24.9999C8.33398 31.4333 13.549 36.6666 19.959 36.6666ZM11.6673 14.9999C11.6704 12.795 12.5459 10.681 14.1026 9.11957C15.6594 7.55815 17.7708 6.67627 19.9757 6.66659C24.584 6.67659 28.334 10.4149 28.334 14.9999V24.9999C28.334 29.5949 24.5957 33.3333 20.0007 33.3333H19.959C15.3107 33.3333 11.6673 29.6733 11.6673 24.9999V14.9999Z"/>
<path d="M18.334 10H21.6673V20H18.334V10Z"/>
</svg>
