<svg width="36" height="36" viewBox="0 0 36 36" xmlns="http://www.w3.org/2000/svg">
<path d="M10.4886 18C10.4886 22.1415 13.8576 25.5105 17.9991 25.5105C22.1406 25.5105 25.5096 22.1415 25.5096 18C25.5096 13.8585 22.1406 10.4895 17.9991 10.4895C13.8576 10.4895 10.4886 13.8585 10.4886 18ZM17.9991 13.4895C20.4861 13.4895 22.5096 15.513 22.5096 18C22.5096 20.487 20.4861 22.5105 17.9991 22.5105C15.5121 22.5105 13.4886 20.487 13.4886 18C13.4886 15.513 15.5121 13.4895 17.9991 13.4895ZM16.4961 28.5H19.4961V33H16.4961V28.5ZM16.4961 3H19.4961V7.5H16.4961V3ZM2.99609 16.5H7.49609V19.5H2.99609V16.5ZM28.4961 16.5H32.9961V19.5H28.4961V16.5ZM6.32759 27.5445L9.50759 24.3615L11.6301 26.4825L8.45009 29.6655L6.32759 27.5445ZM24.3591 9.516L27.5421 6.333L29.6631 8.454L26.4801 11.637L24.3591 9.516ZM9.51209 11.6385L6.32909 8.4555L8.45159 6.3345L11.6316 9.5175L9.51209 11.6385ZM29.6631 27.546L27.5421 29.667L24.3591 26.484L26.4801 24.363L29.6631 27.546Z"/>
</svg>
