<svg width="33" height="33" viewBox="0 0 33 33" xmlns="http://www.w3.org/2000/svg">
<path fill-rule="evenodd" clip-rule="evenodd" d="M25.3041 7.74541C24.1606 6.59438 22.8001 5.6817 21.3013 5.06024C19.8025 4.43879 18.1954 4.12092 16.5729 4.12504C9.76938 4.12504 4.23088 9.66216 4.22813 16.4684C4.22813 18.6437 4.796 20.7667 5.87537 22.6394L4.125 29.0345L10.6686 27.3172C12.4787 28.3025 14.5065 28.8191 16.5674 28.82H16.5729C23.375 28.82 28.9135 23.2829 28.9163 16.4767C28.9209 14.8548 28.6041 13.2482 27.9841 11.7495C27.3641 10.2508 26.4532 8.88993 25.3041 7.74541V7.74541ZM16.5729 26.7369H16.5688C14.7311 26.7371 12.9272 26.2427 11.3465 25.3055L10.9725 25.0828L7.0895 26.1017L8.12487 22.3163L7.8815 21.9285C6.85408 20.2929 6.3102 18.4 6.31263 16.4684C6.31538 10.8117 10.9175 6.20954 16.577 6.20954C17.9248 6.20654 19.2599 6.4709 20.5049 6.98731C21.7499 7.50372 22.8801 8.26192 23.8301 9.21804C24.7852 10.1696 25.5423 11.301 26.0575 12.5469C26.5727 13.7928 26.8358 15.1285 26.8317 16.4767C26.829 22.1334 22.2269 26.7369 16.5729 26.7369ZM22.2007 19.052C21.8914 18.8967 20.3761 18.1514 20.0929 18.0483C19.811 17.9452 19.6061 17.8943 19.3999 18.2023C19.1936 18.5103 18.6024 19.2047 18.4222 19.4109C18.2421 19.6172 18.062 19.6419 17.754 19.4879C17.446 19.3339 16.4519 19.008 15.2735 17.9575C14.3564 17.1394 13.7376 16.1302 13.5575 15.8208C13.3774 15.5114 13.5382 15.345 13.6936 15.191C13.8325 15.0535 14.0016 14.8308 14.1556 14.6507C14.3096 14.4705 14.3605 14.3427 14.4636 14.1364C14.5668 13.9302 14.5159 13.75 14.4375 13.596C14.3605 13.4407 13.7431 11.9227 13.486 11.3053C13.2371 10.7072 12.9827 10.7869 12.793 10.7787C12.5965 10.7706 12.3998 10.767 12.2031 10.7677C12.0467 10.7716 11.8928 10.8079 11.7511 10.8742C11.6094 10.9404 11.4829 11.0352 11.3795 11.1527C11.0963 11.462 10.3001 12.2073 10.3001 13.7253C10.3001 15.2433 11.4056 16.7104 11.5596 16.9167C11.7136 17.1229 13.7349 20.2373 16.8286 21.5738C17.5656 21.8914 18.1404 22.0812 18.5872 22.2242C19.3256 22.4593 19.998 22.4249 20.5301 22.3465C21.1227 22.2585 22.3547 21.6013 22.6119 20.8808C22.869 20.1603 22.869 19.5429 22.792 19.4137C22.715 19.2844 22.5074 19.206 22.2007 19.052"/>
</svg>
