<svg width="33" height="33" viewBox="0 0 33 33" xmlns="http://www.w3.org/2000/svg">
<path d="M29.6711 9.42563C29.8636 8.78626 29.6711 8.31738 28.7609 8.31738H25.7455C24.9783 8.31738 24.6276 8.72301 24.4351 9.16851C24.4351 9.16851 22.902 12.9071 20.7295 15.3313C20.0282 16.0366 19.7079 16.2594 19.3256 16.2594C19.1345 16.2594 18.8568 16.0366 18.8568 15.3973V9.42563C18.8568 8.65838 18.6354 8.31738 17.996 8.31738H13.2578C12.7793 8.31738 12.4905 8.67213 12.4905 9.01038C12.4905 9.73638 13.5767 9.90413 13.6881 11.9501V16.3886C13.6881 17.3608 13.5135 17.5381 13.1285 17.5381C12.1069 17.5381 9.62087 13.7858 8.1455 9.49026C7.85812 8.65563 7.568 8.31876 6.798 8.31876H3.784C2.92188 8.31876 2.75 8.72438 2.75 9.16988C2.75 9.97013 3.77163 13.9301 7.50887 19.1675C10.0004 22.7439 13.508 24.6826 16.7035 24.6826C18.6189 24.6826 18.8554 24.2523 18.8554 23.5098V20.8065C18.8554 19.9458 19.0382 19.7725 19.6446 19.7725C20.0901 19.7725 20.8574 19.998 22.6462 21.7209C24.6895 23.7641 25.0278 24.6813 26.1759 24.6813H29.1899C30.0506 24.6813 30.481 24.2509 30.2335 23.4011C29.9626 22.5555 28.9864 21.3249 27.6911 19.8688C26.9871 19.0383 25.9352 18.1445 25.6149 17.6976C25.168 17.1215 25.2972 16.8671 25.6149 16.3556C25.6162 16.357 29.2889 11.1843 29.6711 9.42563Z"/>
</svg>
