<svg width="37" height="37" viewBox="0 0 37 37" fill="none" xmlns="http://www.w3.org/2000/svg">
<path d="M30.834 9.24992H26.209V6.16659C26.209 4.46613 24.8261 3.08325 23.1257 3.08325H13.8757C12.1752 3.08325 10.7923 4.46613 10.7923 6.16659V9.24992H6.16732C4.46686 9.24992 3.08398 10.6328 3.08398 12.3333V18.4999H10.7923V15.4166H13.8757V18.4999H23.1257V15.4166H26.209V18.4999H33.9173V12.3333C33.9173 10.6328 32.5344 9.24992 30.834 9.24992ZM13.8757 6.16659H23.1257V9.24992H13.8757V6.16659ZM26.209 23.1249H23.1257V20.0416H13.8757V23.1249H10.7923V20.0416H3.08398V29.2916C3.08398 30.992 4.46686 32.3749 6.16732 32.3749H30.834C32.5344 32.3749 33.9173 30.992 33.9173 29.2916V20.0416H26.209V23.1249Z" fill="#C08FFF"/>
</svg>
