<svg width="37" height="37" viewBox="0 0 37 37" fill="none" xmlns="http://www.w3.org/2000/svg">
<path d="M28.2024 6.61838L26.5281 8.29263L24.8539 6.61838C24.7108 6.47508 24.5409 6.3614 24.3539 6.28384C24.1669 6.20628 23.9664 6.16636 23.7639 6.16636C23.5614 6.16636 23.3609 6.20628 23.1739 6.28384C22.9869 6.3614 22.817 6.47508 22.6739 6.61838L20.7484 8.54392C19.2902 7.99404 17.745 7.711 16.1866 7.70833C8.96236 7.70833 3.08398 13.5867 3.08398 20.8125C3.08398 28.0383 8.96236 33.9167 16.1866 33.9167C23.4109 33.9167 29.2908 28.0383 29.2908 20.8125C29.2899 19.4219 29.0655 18.0404 28.6263 16.7209L30.7014 14.6458C30.8447 14.5028 30.9584 14.3329 31.0359 14.1459C31.1135 13.9588 31.1534 13.7583 31.1534 13.5559C31.1534 13.3534 31.1135 13.1529 31.0359 12.9659C30.9584 12.7789 30.8447 12.609 30.7014 12.4659L28.708 10.4725L30.3884 8.79213C30.7415 8.43908 31.6912 7.70833 32.3757 7.70833H33.9173V4.625H32.3757C30.2173 4.625 28.392 6.42413 28.2024 6.61838ZM16.1866 15.4167C14.7452 15.4167 13.3916 15.9778 12.371 16.9969C11.8689 17.4971 11.4708 18.0918 11.1999 18.7467C10.9289 19.4016 10.7904 20.1037 10.7923 20.8125H7.70898C7.70898 18.5493 8.58928 16.4203 10.1895 14.8185C10.9751 14.0282 11.9096 13.4016 12.9391 12.975C13.9685 12.5484 15.0723 12.3303 16.1866 12.3333V15.4167Z" fill="#C08FFF"/>
</svg>
