<svg width="36" height="36" viewBox="0 0 36 36" fill="none" xmlns="http://www.w3.org/2000/svg">
<path d="M4.49968 19.5001H5.99968V30.0001C5.99968 31.6546 7.34518 33.0001 8.99968 33.0001H26.9997C28.6542 33.0001 29.9997 31.6546 29.9997 30.0001V19.5001H31.4997C31.7963 19.5 32.0863 19.412 32.3329 19.2472C32.5795 19.0823 32.7717 18.8481 32.8852 18.574C32.9987 18.3 33.0284 17.9984 32.9706 17.7075C32.9127 17.4166 32.7699 17.1493 32.5602 16.9396L19.0602 3.43956C18.921 3.30014 18.7557 3.18953 18.5737 3.11407C18.3917 3.0386 18.1967 2.99976 17.9997 2.99976C17.8027 2.99976 17.6076 3.0386 17.4256 3.11407C17.2437 3.18953 17.0784 3.30014 16.9392 3.43956L3.43918 16.9396C3.22947 17.1493 3.08666 17.4166 3.02881 17.7075C2.97095 17.9984 3.00066 18.3 3.11416 18.574C3.22767 18.8481 3.41988 19.0823 3.66649 19.2472C3.91311 19.412 4.20305 19.5 4.49968 19.5001ZM14.9997 30.0001V22.5001H20.9997V30.0001H14.9997ZM17.9997 6.62106L26.9997 15.6211V22.5001L27.0012 30.0001H23.9997V22.5001C23.9997 20.8456 22.6542 19.5001 20.9997 19.5001H14.9997C13.3452 19.5001 11.9997 20.8456 11.9997 22.5001V30.0001H8.99968V15.6211L17.9997 6.62106Z" fill="white"/>
</svg>
