<svg width="36" height="36" viewBox="0 0 36 36" fill="none" xmlns="http://www.w3.org/2000/svg">
<path d="M29.796 12.6975C30.0071 11.9567 30.0529 11.1787 29.93 10.4183C29.8072 9.65787 29.5188 8.93375 29.0852 8.29712C28.6517 7.66049 28.0835 7.12691 27.4209 6.73411C26.7584 6.34131 26.0176 6.09889 25.251 6.024C24.9434 5.14142 24.369 4.3763 23.6074 3.83452C22.8458 3.29275 21.9346 3.00112 21 3C19.8894 3.00376 18.8199 3.42085 18 4.17C17.1801 3.42085 16.1106 3.00376 15 3C13.0485 3 11.385 4.2465 10.7625 6.0225C9.99455 6.09552 9.25208 6.33663 8.58775 6.72874C7.92342 7.12085 7.35352 7.65435 6.91848 8.29138C6.48343 8.92842 6.1939 9.65339 6.07042 10.4149C5.94695 11.1763 5.99255 11.9556 6.204 12.6975C5.24105 13.2098 4.43475 13.9733 3.87065 14.9068C3.30655 15.8404 3.00569 16.9093 3 18C3 19.6125 3.642 21.129 4.758 22.248C4.58724 22.8163 4.50033 23.4066 4.5 24C4.5 26.9355 6.618 29.385 9.459 29.901C9.87607 30.8228 10.5495 31.6051 11.3991 32.1546C12.2486 32.7041 13.2383 32.9976 14.25 33C15.7185 33 17.046 32.3895 18 31.4115C18.4869 31.9138 19.0697 32.3132 19.7139 32.5861C20.3581 32.8589 21.0504 32.9997 21.75 33C22.7599 32.9981 23.748 32.7058 24.5964 32.1579C25.4449 31.6101 26.1178 30.8297 26.535 29.91C27.3719 29.7625 28.168 29.4391 28.8708 28.9612C29.5735 28.4833 30.1669 27.8618 30.6117 27.1376C31.0566 26.4135 31.3428 25.6033 31.4514 24.7604C31.5601 23.9176 31.4887 23.0612 31.242 22.248C31.7997 21.6901 32.242 21.0278 32.5437 20.2989C32.8453 19.57 33.0004 18.7888 33 18C32.9943 16.9093 32.6934 15.8404 32.1293 14.9068C31.5652 13.9733 30.7589 13.2098 29.796 12.6975ZM14.25 30C13.1835 30 12.255 29.244 12.045 28.203L11.727 27H10.5C8.8455 27 7.5 25.6545 7.5 24C7.5 23.472 7.6275 22.977 7.8795 22.5285L8.5635 21.3045L7.3875 20.5395C6.96268 20.2656 6.61316 19.8898 6.37081 19.4462C6.12846 19.0026 6.00098 18.5055 6 18C6 16.5345 7.0845 15.264 8.523 15.042L11.0625 14.652L9.474 12.633C9.19111 12.2683 9.02706 11.8255 9.00402 11.3646C8.98099 10.9036 9.10008 10.4467 9.3452 10.0556C9.59032 9.66451 9.94964 9.35815 10.3745 9.17794C10.7995 8.99773 11.2695 8.95238 11.721 9.048L13.5 9.3105V7.5C13.5 7.10218 13.658 6.72064 13.9393 6.43934C14.2206 6.15804 14.6022 6 15 6C15.3978 6 15.7794 6.15804 16.0607 6.43934C16.342 6.72064 16.5 7.10218 16.5 7.5V27.75C16.5 28.9905 15.4905 30 14.25 30ZM28.6125 20.538L27.4365 21.303L28.1205 22.527C28.3725 22.977 28.5 23.472 28.5 24C28.5 25.6545 27.1545 27 25.425 27H24.198L23.955 28.203C23.8501 28.7104 23.5736 29.1662 23.1719 29.4935C22.7703 29.8208 22.2681 29.9997 21.75 30C20.5095 30 19.5 28.9905 19.5 27.75V7.5C19.5 6.672 20.172 6 21 6C21.828 6 22.5 6.672 22.5 7.575V9.3855L24.279 9.048C24.7305 8.95238 25.2005 8.99773 25.6255 9.17794C26.0504 9.35815 26.4097 9.66451 26.6548 10.0556C26.8999 10.4467 27.019 10.9036 26.996 11.3646C26.9729 11.8255 26.8089 12.2683 26.526 12.633L24.9375 14.6535L27.477 15.0435C28.1797 15.1573 28.8192 15.517 29.2813 16.0585C29.7434 16.6 29.9981 17.2881 30 18C30 19.0245 29.481 19.9725 28.6125 20.538Z" fill="white"/>
</svg>
