<svg width="36" height="36" viewBox="0 0 36 36" fill="none" xmlns="http://www.w3.org/2000/svg">
<path d="M30 6H6C5.20435 6 4.44129 6.31607 3.87868 6.87868C3.31607 7.44129 3 8.20435 3 9V27C3 27.7956 3.31607 28.5587 3.87868 29.1213C4.44129 29.6839 5.20435 30 6 30H30C30.7956 30 31.5587 29.6839 32.1213 29.1213C32.6839 28.5587 33 27.7956 33 27V9C33 8.20435 32.6839 7.44129 32.1213 6.87868C31.5587 6.31607 30.7956 6 30 6V6ZM30 13.05L18 21.051L6 13.05V9.4455L18 17.445L30 9.4455V13.05Z" fill="white"/>
</svg>
