<svg width="53" height="30" viewBox="0 0 53 30" fill="none" xmlns="http://www.w3.org/2000/svg">
<path fill-rule="evenodd" clip-rule="evenodd" d="M25.1931 27.1835C22.3019 26.9439 19.5818 25.6817 17.4983 23.6128C15.4148 21.5439 14.0975 18.797 13.7719 15.8423C13.1163 16.0634 12.4521 16.3242 11.7792 16.6161L12.8661 22.1297L0 13.2646L8.50553 0L9.61401 5.61975C12.0324 5.20536 14.5061 5.27443 16.8989 5.82314C18.9112 3.51995 21.6692 2.0419 24.6626 1.66249C25.1746 1.59433 25.6905 1.56183 26.2067 1.56522C27.2589 1.58102 28.3062 1.71596 29.3294 1.96758C32.0085 2.67142 34.3844 4.26562 36.0857 6.50083C37.7869 8.73605 38.7176 11.4862 38.7321 14.3213C39.5806 14.0539 40.4142 13.7396 41.2294 13.3795L40.1339 7.8703L53 16.7133L44.4945 29.9779L43.386 24.3537C40.4989 24.8698 37.5335 24.6758 34.7338 23.7878C33.2153 25.2389 31.3684 26.2797 29.3596 26.8165C27.9985 27.1642 26.5921 27.288 25.1931 27.1835ZM27.4187 17.2881C27.4254 17.0456 27.3813 16.8043 27.2893 16.5807C27.1978 16.3875 27.0579 16.2227 26.8839 16.1032C26.6508 15.9443 26.4022 15.8109 26.142 15.7052C25.4807 15.4167 24.8343 15.0935 24.2054 14.7369C23.6873 14.4428 23.2441 14.0277 22.9115 13.5254C22.5671 12.9577 22.3987 12.2964 22.4284 11.6286C22.4152 10.9793 22.5941 10.3411 22.9417 9.79808C23.293 9.2679 23.7814 8.84841 24.3521 8.58659C24.835 8.36538 25.3515 8.23078 25.8789 8.18865V6.81798H27.2462V8.22402C27.6969 8.2885 28.1341 8.42893 28.5401 8.63965C29.1312 8.946 29.6239 9.4203 29.9591 10.0059C30.3148 10.6574 30.4921 11.3952 30.4724 12.1415H27.492C27.5458 11.6951 27.4317 11.2445 27.1729 10.8814C27.0711 10.7706 26.9481 10.6827 26.8114 10.6233C26.6748 10.564 26.5276 10.5344 26.3792 10.5365C26.1772 10.5274 25.9771 10.5814 25.8056 10.6912C25.6587 10.7925 25.5458 10.9376 25.4821 11.1069C25.4115 11.2836 25.3763 11.473 25.3786 11.664C25.3737 11.8627 25.4151 12.0597 25.4993 12.2388C25.5961 12.4159 25.732 12.5673 25.8962 12.6809C26.1405 12.8534 26.4005 13.0015 26.6725 13.1231C27.3204 13.4258 27.9498 13.7683 28.5574 14.1489C29.0857 14.4533 29.5399 14.8766 29.8858 15.3869C30.2313 15.9526 30.4013 16.6125 30.3732 17.2793C30.4019 17.9285 30.2341 18.571 29.8928 19.1187C29.5515 19.6664 29.0535 20.0926 28.4668 20.339C28.018 20.5361 27.5423 20.6613 27.0564 20.7104V22.0368H25.6805V20.7104C25.3894 20.6737 25.1011 20.6161 24.8179 20.538C24.3068 20.3971 23.8256 20.1602 23.3988 19.8394C22.9595 19.502 22.6083 19.0584 22.3766 18.5483C22.0998 17.9276 21.967 17.2496 21.9884 16.5674H24.9386C24.9306 16.8598 24.9714 17.1514 25.0594 17.4296C25.1236 17.6362 25.2328 17.8252 25.3786 17.9823C25.5073 18.1172 25.6655 18.2187 25.8401 18.2786C26.0173 18.343 26.2042 18.3744 26.3922 18.3714C26.6027 18.381 26.8118 18.3305 26.996 18.2255C27.1443 18.1321 27.2616 17.9949 27.3324 17.832C27.4042 17.6633 27.4409 17.4811 27.4403 17.297L27.4187 17.2881ZM27.2591 25.0656L27.009 25.0877C26.7372 25.0877 26.4655 25.1186 26.1895 25.1186C23.8396 25.1242 21.5565 24.317 19.7096 22.8277C17.8626 21.3383 16.5597 19.2539 16.0115 16.9114C15.4633 14.5689 15.7018 12.1053 16.6886 9.91907C17.6754 7.73281 19.3527 5.95167 21.4493 4.86367V4.86367L21.665 4.75313C23.0373 4.07703 24.5372 3.71675 26.0597 3.69754C27.5822 3.67834 29.0903 4.00067 30.4784 4.64195C31.8666 5.28324 33.1011 6.22796 34.0955 7.4099C35.09 8.59185 35.8202 9.98243 36.2351 11.4842C36.65 12.986 36.7396 14.5626 36.4974 16.1035C36.2553 17.6445 35.6874 19.1126 34.8334 20.4048C33.9795 21.697 32.8602 22.7822 31.5541 23.5843C30.2479 24.3863 28.7864 24.8859 27.2721 25.0479L27.2591 25.0656Z" fill="white"/>
</svg>
