<svg width="133" height="133" viewBox="0 0 133 133" fill="none" xmlns="http://www.w3.org/2000/svg">
<g filter="url(#filter0_d_112_14)">
<path d="M66.4816 12C35.9692 12 11.1301 36.8177 11.1191 67.3301C11.1135 77.0834 13.6681 86.605 18.5116 94.9951L11 122.833L39.9963 115.982C48.0816 120.393 57.1835 122.709 66.4491 122.714H66.4708C96.9777 122.714 121.806 97.8911 121.822 67.3842C121.834 52.5935 116.082 38.6872 105.63 28.2245C95.1789 17.7674 81.2889 12.0055 66.4816 12ZM66.4708 23.0833C78.3078 23.0889 89.4318 27.704 97.7942 36.0608C106.157 44.4287 110.75 55.5475 110.739 67.3734C110.728 91.7789 90.8765 111.631 66.4599 111.631C59.0729 111.625 51.7557 109.771 45.3107 106.252L41.5766 104.217L37.4528 105.191L26.5426 107.767L29.2052 97.8742L30.4067 93.4365L28.1121 89.4534C24.244 82.7591 22.1968 75.105 22.2024 67.3301C22.2135 42.9357 42.0708 23.0833 66.4708 23.0833ZM46.8909 41.7865C45.9655 41.7865 44.4692 42.1328 43.2001 43.5182C41.9311 44.8981 38.3512 48.2402 38.3512 55.0453C38.3512 61.8505 43.3083 68.4286 44.0011 69.3541C44.6882 70.274 53.5697 84.6803 67.6289 90.2219C79.3107 94.827 81.6833 93.9182 84.2214 93.6855C86.7595 93.4583 92.4095 90.3464 93.5622 87.1156C94.7148 83.8848 94.7175 81.1056 94.3739 80.5348C94.0303 79.9585 93.1076 79.6148 91.7222 78.9221C90.3423 78.2294 83.5422 74.8903 82.2732 74.4303C81.0041 73.9704 80.0759 73.7376 79.156 75.123C78.2361 76.5085 75.5924 79.6149 74.7833 80.5348C73.9742 81.4603 73.1706 81.5847 71.7851 80.892C70.3997 80.1938 65.9453 78.7295 60.6585 74.019C56.5466 70.356 53.772 65.8364 52.963 64.451C52.1594 63.0711 52.8872 62.3132 53.5799 61.6261C54.2006 61.0054 54.9545 60.0107 55.6472 59.2016C56.3344 58.3925 56.5727 57.8161 57.0326 56.8962C57.4926 55.9762 57.2572 55.1644 56.9136 54.4717C56.57 53.779 53.8793 46.9485 52.6491 44.2109C51.6128 41.9111 50.5183 41.8577 49.5319 41.8189C48.7284 41.7857 47.8109 41.7865 46.8909 41.7865Z" fill="#C08FFF" fill-opacity="0.05" shape-rendering="crispEdges"/>
</g>
<defs>
<filter id="filter0_d_112_14" x="7" y="12" width="118.822" height="118.833" filterUnits="userSpaceOnUse" color-interpolation-filters="sRGB">
<feFlood flood-opacity="0" result="BackgroundImageFix"/>
<feColorMatrix in="SourceAlpha" type="matrix" values="0 0 0 0 0 0 0 0 0 0 0 0 0 0 0 0 0 0 127 0" result="hardAlpha"/>
<feOffset dy="4"/>
<feGaussianBlur stdDeviation="2"/>
<feComposite in2="hardAlpha" operator="out"/>
<feColorMatrix type="matrix" values="0 0 0 0 0 0 0 0 0 0 0 0 0 0 0 0 0 0 0.2 0"/>
<feBlend mode="normal" in2="BackgroundImageFix" result="effect1_dropShadow_112_14"/>
<feBlend mode="normal" in="SourceGraphic" in2="effect1_dropShadow_112_14" result="shape"/>
</filter>
</defs>
</svg>
